# xmcd
#
# Track frame offsets:
#	150
#	35995
#	57518
#	112964
#	147255
#	212186
#
# Disc length: 3296 seconds
#
# Revision: 0
# Processed by: cddbd v1.5.2PL0 Copyright (c) Steve Scherf et al.
# Submitted via: audiograbber 1.83.01
#
DISCID=5d0cde06
DTITLE=Grateful Dead - 93-12-09 Los Angeles Sports Arena, Los Angeles CA
DYEAR=1900
DGENRE=
TTITLE0=China Cat Sunflower
TTITLE1=I Know You Rider
TTITLE2=Estimated Prophet
TTITLE3=Wave To The Wind
TTITLE4=He's Gone
TTITLE5=Drums
EXTD=
EXTT0=
EXTT1=
EXTT2=
EXTT3=
EXTT4=
EXTT5=
PLAYORDER=
